<svg xmlns="http://www.w3.org/2000/svg" xmlns:xlink="http://www.w3.org/1999/xlink" width="172.232" height="142.919" viewBox="0 0 172.232 142.919"><defs><style>.a{fill:#3f3d56;}.b{fill:#fff;}.c{fill:#e6e8ec;}.d{fill:red;}.e{fill:url(#a);}.f{fill:#feb9b9;}.g{fill:#2f2e41;}.h{opacity:0.1;}.i{fill:#efefef;}</style><linearGradient id="a" x1="0.505" y1="1.007" x2="0.505" gradientUnits="objectBoundingBox"><stop offset="0" stop-color="gray" stop-opacity="0.251"/><stop offset="0.54" stop-color="gray" stop-opacity="0.122"/><stop offset="1" stop-color="gray" stop-opacity="0.102"/></linearGradient></defs><g transform="translate(-282 -122.601)"><g transform="translate(334.333 122.601)"><rect class="a" width="2.098" height="17.289" rx="1.049" transform="translate(69.049 32.356)"/><rect class="a" width="70.181" height="142.633" rx="9"/><path class="b" d="M520.661,199h-8.05v.968a4.589,4.589,0,0,1-4.591,4.589h-25.6a4.589,4.589,0,0,1-4.591-4.589V199h-7.538a5.574,5.574,0,0,0-5.574,5.574V328.639a5.574,5.574,0,0,0,5.574,5.574h50.373a5.574,5.574,0,0,0,5.574-5.574V204.583A5.574,5.574,0,0,0,520.661,199Z" transform="translate(-460.248 -195.285)"/><rect class="c" width="9.8" height="1.989" rx="0.994" transform="translate(28.321 4.26)"/><circle class="c" cx="1.129" cy="1.129" r="1.129" transform="translate(39.604 4.125)"/><circle class="b" cx="13.276" cy="13.276" r="13.276" transform="translate(22.243 59.791)"/><path class="d" d="M555.7,427.355a17.744,17.744,0,1,1-17.744-17.745A17.744,17.744,0,0,1,555.7,427.355ZM535.9,436.747l13.162-13.163a1.144,1.144,0,0,0,0-1.62l-1.62-1.608a1.141,1.141,0,0,0-1.617,0l-10.735,10.736-5.013-5.024a1.148,1.148,0,0,0-1.62,0l-1.62,1.629a1.148,1.148,0,0,0,0,1.62l7.442,7.44a1.144,1.144,0,0,0,1.62,0Z" transform="translate(-502.717 -356.141)"/></g><g transform="translate(287.743 141.328)"><rect class="a" width="1.058" height="5.117" rx="0.529" transform="translate(48.167 9.392)"/><rect class="a" width="1.192" height="8.905" rx="0.596" transform="translate(48.128 18.761)"/><rect class="a" width="1.134" height="8.982" rx="0.567" transform="translate(48.148 30.782)"/><path class="e" d="M377.46,474.88a.2.2,0,0,0,.232.03A.823.823,0,0,1,377.46,474.88Z" transform="translate(-343.37 -420.347)"/><path class="f" d="M373.736,491l-.229,1.247-.177.954-.321,1.745-3.116,2.182s-.281-.24-.744-.619a54.294,54.294,0,0,0-5.932-4.342,6.64,6.64,0,0,0-1.63-.751Z" transform="translate(-330.876 -433.037)"/><path class="a" d="M362.12,482.664s3.633.624,3.846-.928-1.87-2.39-3.635-2.495-12.359.624-12.359.624-1.869,2.492,4.88,2.909Z" transform="translate(-321.545 -423.773)"/><rect class="g" width="19.006" height="22.537" transform="translate(29.514 7.692)"/><rect class="h" width="19.006" height="22.537" transform="translate(29.514 7.794)"/><path class="f" d="M224.528,429.142a3.05,3.05,0,0,0-1.158.819,45.909,45.909,0,0,0-4.659,6.347c-3.508-4.178.374-7.479,2.028-8.614.4-.275.672-.426.672-.426Z" transform="translate(-217.289 -382.87)"/><path class="f" d="M380.433,288.22s.935,6.543,4.154,8.1-4.154,4.469-4.154,4.469l-10.073-3.742s5.713-1.87,4.569-7.375Z" transform="translate(-337.781 -273.415)"/><path class="f" d="M321.969,473.16l-.228,1.243-.185.958-.321,1.745-3.116,2.179s-.281-.238-.744-.617a54.057,54.057,0,0,0-5.935-4.342,6.6,6.6,0,0,0-1.63-.751Z" transform="translate(-290.118 -418.994)"/><path class="g" d="M309.8,465.431s3.261.023,3.457-1.533-1.777-2.39-3.457-2.495-11.886.672-11.886.672-1.448,2.939,4.972,3.355Z" transform="translate(-280.642 -409.732)"/><path d="M368.7,489.944c-.143-.07-.285-.143-.426-.213l-.383-.483-5.025-6.372v.111c-.034,1.064-.4,9.5-3.218,10.276-3.012.83-6.645,1.039-8.3-4.569s-4.682-17.863-7.79-18.591l4.623-3.791a27.692,27.692,0,0,1,4.308,7.007c-.047-.213-2.16-10.088-.426-11.836h15.166s2.341,6.668,3.946,9.971a111.983,111.983,0,0,1,4.332,12.732A4.872,4.872,0,0,1,368.7,489.944Z" transform="translate(-316.683 -409.801)"/><path class="h" d="M397.105,416.45c-2.341,1.386-12.619.822-15.963.6l-.911-.066c-.1,0,.015-.055.015-.055l.094-.943,2.492-6.334,13.345-7.739a11.615,11.615,0,0,0-.338,3.491A81.046,81.046,0,0,0,397.105,416.45Z" transform="translate(-345.52 -362.907)"/><path class="i" d="M396.694,415c-2.341,1.386-12.619.821-15.963.6l-.911-.064-.151-.013.166-.043.822-.213,1.764-7.062,13.345-7.737a11.62,11.62,0,0,0-.338,3.491A81.019,81.019,0,0,0,396.694,415Z" transform="translate(-345.109 -361.775)"/><path class="h" d="M395.946,403.956c-2.714.626-8.686,2.462-10.98,6.9-1.53,2.952-2.818,4.218-3.716,4.748l-.911-.064a.521.521,0,0,0,.015-.055l.821-.213,1.764-7.062,13.345-7.736A11.674,11.674,0,0,0,395.946,403.956Z" transform="translate(-345.636 -361.775)"/><path class="h" d="M234.173,427.29l3.116,1.869a3.05,3.05,0,0,0-1.158.819c-.26-.758-1.889-1.815-2.631-2.267C233.9,427.441,234.173,427.29,234.173,427.29Z" transform="translate(-230.051 -382.886)"/><path class="h" d="M376.943,471.72a.185.185,0,0,1-.213-.03A.739.739,0,0,0,376.943,471.72Z" transform="translate(-342.795 -417.836)"/><path class="d" d="M271.012,265.584a6.175,6.175,0,0,1-4.778-1.766s-8.3,2.39-11.112,7.79S233.2,287.6,233.2,287.6s3.325,1.869,3.012,2.8l12.568-7.27s4.47-3.218,5.71-3.946,8.1-5.193,9.556,6.958,0,10.7,0,10.7,2.077.728,5.089-5.089,12.357-7.166,12.357-7.166l.519-6.125s1.854-4.061.426-5.747a3.618,3.618,0,0,1-.832-1.758c-.236-1.556,0-4.148,3.307-6.3,5.089-3.325,7.062-6.023,7.062-6.023s.1-1.975-3.012-2.91-15.786-6.023-15.786-6.023l-.426,1.766,10,7.056s-4.985,4.044-8.939,3.946C273.809,262.468,274.543,265.479,271.012,265.584Z" transform="translate(-229.814 -243.094)"/><path class="h" d="M396.954,292.217a20.283,20.283,0,0,1-.575-2.537l-5.5,1.454a6.034,6.034,0,0,1-.126,3.175A5.919,5.919,0,0,0,396.954,292.217Z" transform="translate(-353.831 -274.565)"/><circle class="f" cx="5.919" cy="5.919" r="5.919" transform="translate(32.632 7.796)"/><path class="h" d="M428.67,507.07s3.427,6.751,2.388,8.826" transform="translate(-383.681 -445.686)"/><path d="M353.634,218.7a41.955,41.955,0,0,1,4.821,1.277,2.392,2.392,0,0,0,1.247.047c.628-.194,1.139-.851,1.79-.832a1.984,1.984,0,0,1,1.085.547,13.353,13.353,0,0,1,1.49,1.328c1.115,1.211,1.807,2.841,2.824,4.159s2.468,2.862,3.913,2.258a8.354,8.354,0,0,1-7.533,6.466c-1.39.1-2.814-.194-4.159.213a3.6,3.6,0,0,1-1.05.255c-.775,0-1.4-.711-1.882-1.4-1.132-1.626-2.028-3.471-3.3-4.955a2.716,2.716,0,0,0-1.513-1.047,2.8,2.8,0,0,0-1.673.47,7.85,7.85,0,0,0-2.448,1.7,3.388,3.388,0,0,0-.826,2.98,6.95,6.95,0,0,1,.5,1.669c.013.945-.822,1.635-.985,2.554a9.581,9.581,0,0,0-.04,1.162,4.766,4.766,0,0,1-1.756,3.084,2.214,2.214,0,0,0-.8,1.113c-.066.326,0,.668-.043,1a1.811,1.811,0,0,1-1.662,1.339,4.8,4.8,0,0,1-2.494-.3,2.876,2.876,0,0,0,1.4-3.05c-.321-1.686-2.016-2.9-1.87-4.612a5.342,5.342,0,0,1,.468-1.517,13.9,13.9,0,0,0,.8-2.875,4.844,4.844,0,0,0-.049-2.292,7.125,7.125,0,0,0-1.034-1.743,9.911,9.911,0,0,1-1.2-2.454,1.727,1.727,0,0,1-.115-.813,1.678,1.678,0,0,1,.522-.841,6.856,6.856,0,0,1,3.156-2.262,7.106,7.106,0,0,1,1.792-.068,21.155,21.155,0,0,0,3.114-.132c.851-.1,2.29-.087,3.012-.639.672-.515,1.051-1.162,1.879-1.49a5.534,5.534,0,0,1,2.626-.3Z" transform="translate(-311.935 -218.66)"/></g><ellipse class="d" cx="8.586" cy="1.452" rx="8.586" ry="1.452" transform="translate(430.837 261.976)"/><path class="d" d="M887.833,826.585a2.5,2.5,0,0,0,.818-1.236,1.1,1.1,0,0,0-.572-1.258,1.608,1.608,0,0,0-1.512.532,2.018,2.018,0,0,1-1.471.709,2.238,2.238,0,0,0,.695-2.095.882.882,0,0,0-.194-.427c-.29-.312-.821-.179-1.168.068A4.355,4.355,0,0,0,883,826.523a6.849,6.849,0,0,1-.021-1.495,1.543,1.543,0,0,0-.564-1.33,1.7,1.7,0,0,0-.854-.2,1.779,1.779,0,0,0-1.4.4,1.376,1.376,0,0,0,.056,1.708,5.437,5.437,0,0,0,1.446,1.157,3.2,3.2,0,0,1,1.03.984.892.892,0,0,1,.076.177h3.12a8.764,8.764,0,0,0,1.939-1.336Z" transform="translate(-444.859 -565.532)"/><ellipse class="i" cx="5.666" cy="0.958" rx="5.666" ry="0.958" transform="translate(317.02 263.604)"/><path class="i" d="M885.13,825.239a1.651,1.651,0,0,0,.54-.816.728.728,0,0,0-.378-.83c-.347-.132-.717.109-1,.351a1.333,1.333,0,0,1-.971.468,1.477,1.477,0,0,0,.458-1.382.583.583,0,0,0-.128-.282c-.191-.206-.541-.118-.771.045a2.874,2.874,0,0,0-.941,2.406,4.53,4.53,0,0,1-.014-.986,1.019,1.019,0,0,0-.372-.878,1.12,1.12,0,0,0-.564-.132,1.174,1.174,0,0,0-.922.262.909.909,0,0,0,.037,1.127,3.573,3.573,0,0,0,.954.763,2.114,2.114,0,0,1,.681.649.588.588,0,0,1,.051.117h2.059a5.787,5.787,0,0,0,1.279-.882Z" transform="translate(-560.101 -562.244)"/><ellipse class="i" cx="5.666" cy="0.958" rx="5.666" ry="0.958" transform="translate(284.974 263.604)"/><path class="i" d="M885.13,825.239a1.651,1.651,0,0,0,.54-.816.728.728,0,0,0-.378-.83c-.347-.132-.717.109-1,.351a1.333,1.333,0,0,1-.971.468,1.477,1.477,0,0,0,.458-1.382.583.583,0,0,0-.128-.282c-.191-.206-.541-.118-.771.045a2.874,2.874,0,0,0-.941,2.406,4.53,4.53,0,0,1-.014-.986,1.019,1.019,0,0,0-.372-.878,1.12,1.12,0,0,0-.564-.132,1.174,1.174,0,0,0-.922.262.909.909,0,0,0,.037,1.127,3.573,3.573,0,0,0,.954.763,2.114,2.114,0,0,1,.681.649.588.588,0,0,1,.051.117h2.059a5.787,5.787,0,0,0,1.279-.882Z" transform="translate(-592.146 -562.244)"/><rect class="g" width="172.232" height="0.347" transform="translate(282 264.973)"/><path class="d" d="M786.373,156.844s-17.98-1.085-15.861,11.514a3.061,3.061,0,0,0,1.6,3.237s.032-.933,1.845-.615a8.434,8.434,0,0,0,1.954.094,4.07,4.07,0,0,0,2.387-.976h0s5.054-2.088,7.019-10.348c0,0,1.454-1.8,1.4-2.266l-3.034,1.3a5.41,5.41,0,0,1,.214,4.007s-.1-3.929-.681-3.844c-.117.017-1.576.758-1.576.758s1.783,3.812.438,6.583c0,0,.51-4.7-1-6.308l-2.135,1.247s2.084,3.938.671,7.151c0,0,.363-4.928-1.121-6.848l-1.935,1.51s1.958,3.88.764,6.545c0,0-.156-5.736-1.183-6.169a11.9,11.9,0,0,0-1.952,2.105s1.341,2.819.508,4.3c0,0-.51-3.822-.929-3.844a12.69,12.69,0,0,0-1.862,4.271,9.2,9.2,0,0,1,1.454-4.51,5.088,5.088,0,0,0-2.584,1.336s.263-1.789,3-1.947a11.742,11.742,0,0,1,1.766-2.037,11.058,11.058,0,0,0-4.371.5s1.452-1.689,4.871-.92l1.911-1.561s-3.583-.489-5.1.051c0,0,1.749-1.495,5.618-.406l2.08-1.243a19.077,19.077,0,0,0-4.875-.427s1.922-1.036,5.486.088l1.495-.668s-2.238-.44-2.893-.51-.69-.25-.69-.25a7.762,7.762,0,0,1,4.2.468A18.925,18.925,0,0,0,786.373,156.844Z" transform="translate(-340.548 -24.601)"/><path class="a" d="M732.385,130.655s-8.114-.489-7.166,5.2a1.387,1.387,0,0,0,.722,1.463s.015-.427.835-.28a3.737,3.737,0,0,0,.882.043,1.828,1.828,0,0,0,1.078-.444h0s2.285-.944,3.173-4.676c0,0,.655-.813.63-1.023l-1.371.585a2.464,2.464,0,0,1,.1,1.811s-.045-1.775-.307-1.734c-.053,0-.713.344-.713.344a4.049,4.049,0,0,1,.2,2.975s.231-2.123-.451-2.851l-.965.572a4.26,4.26,0,0,1,.3,3.231s.164-2.227-.506-3.094l-.873.683s.884,1.753.346,2.958c0,0-.073-2.592-.536-2.789a5.36,5.36,0,0,0-.882.952s.607,1.281.231,1.945c0,0-.231-1.728-.427-1.737a5.752,5.752,0,0,0-.841,1.922,4.167,4.167,0,0,1,.658-2.037,2.3,2.3,0,0,0-1.168.6s.12-.809,1.356-.88a5.846,5.846,0,0,1,.8-.922,5,5,0,0,0-1.975.229,2.218,2.218,0,0,1,2.2-.416l.854-.7a7.339,7.339,0,0,0-2.307.022,2.807,2.807,0,0,1,2.539-.184l.94-.562a8.585,8.585,0,0,0-2.2-.191,3.385,3.385,0,0,1,2.479.038l.673-.3s-1.011-.2-1.309-.231-.312-.113-.312-.113a3.5,3.5,0,0,1,1.9.214A8.782,8.782,0,0,0,732.385,130.655Z" transform="translate(-311.195 -5.083)"/><path class="a" d="M732.385,130.655s-8.114-.489-7.166,5.2a1.387,1.387,0,0,0,.722,1.463s.015-.427.835-.28a3.737,3.737,0,0,0,.882.043,1.828,1.828,0,0,0,1.078-.444h0s2.285-.944,3.173-4.676c0,0,.655-.813.63-1.023l-1.371.585a2.464,2.464,0,0,1,.1,1.811s-.045-1.775-.307-1.734c-.053,0-.713.344-.713.344a4.049,4.049,0,0,1,.2,2.975s.231-2.123-.451-2.851l-.965.572a4.26,4.26,0,0,1,.3,3.231s.164-2.227-.506-3.094l-.873.683s.884,1.753.346,2.958c0,0-.073-2.592-.536-2.789a5.36,5.36,0,0,0-.882.952s.607,1.281.231,1.945c0,0-.231-1.728-.427-1.737a5.752,5.752,0,0,0-.841,1.922,4.167,4.167,0,0,1,.658-2.037,2.3,2.3,0,0,0-1.168.6s.12-.809,1.356-.88a5.846,5.846,0,0,1,.8-.922,5,5,0,0,0-1.975.229,2.218,2.218,0,0,1,2.2-.416l.854-.7a7.339,7.339,0,0,0-2.307.022,2.807,2.807,0,0,1,2.539-.184l.94-.562a8.585,8.585,0,0,0-2.2-.191,3.385,3.385,0,0,1,2.479.038l.673-.3s-1.011-.2-1.309-.231-.312-.113-.312-.113a3.5,3.5,0,0,1,1.9.214A8.782,8.782,0,0,0,732.385,130.655Z" transform="translate(-436.327 81.826)"/></g></svg>