<svg xmlns="http://www.w3.org/2000/svg" width="177.17" height="142.741" viewBox="0 0 177.17 142.741"><defs><style>.a{fill:#3f3d56;}.b{fill:#a0616a;}.c{fill:#d0cde1;}.d{fill:#f2f2f2;}.e{fill:red;}.f{opacity:0.1;}</style></defs><g transform="translate(0 0)"><ellipse class="a" cx="87.533" cy="6.839" rx="87.533" ry="6.839" transform="translate(2.104 129.064)"/><path class="b" d="M760.9,582.422l.82,6.016-5.743.547.82-7.384Z" transform="translate(-596.906 -459.223)"/><path class="b" d="M808.266,303.812s.547,7.384.547,7.657-3.829,19.143-3.829,19.143-5.469,10.392,0,10.118,3.829-9.845,3.829-9.845l5.743-15.861-2.461-11.212Z" transform="translate(-671.348 -263.201)"/><path class="b" d="M690.512,582.422l-.82,6.016,5.743.547-.82-7.384Z" transform="translate(-544.57 -459.223)"/><path d="M836.2,423.45l-1.367,1.914s-.82,8.2,0,10.939,2.461,15.314,2.461,16.135.273,1.367,0,1.641-1.094.273-.547.82.547,2.188.547,2.188v1.367l3.555,20.237s-2.188,2.461-.547,2.461,7.657,0,7.384-2.735l-.547-.273s-.82-18.049-.547-18.87a6.979,6.979,0,0,0,0-2.461s-.547-.82,0-1.094.547-2.461.547-2.461l2.461-16.682s2.188,11.212,3.555,12.306,1.094,3.829,1.094,3.829l1.094,24.065s-1.094,2.735,0,3.282,5.743,2.461,6.016-.273S863,453.258,863,452.164s-.273-1.641,0-2.461-.273-.82,0-.82-.547-.82-.547-1.367v-13.4a20.191,20.191,0,0,1,.547-3.282c.273-.547-.273-1.094,0-1.914s-.547-3.555-.547-3.555l-12.306-3.282Z" transform="translate(-696.546 -356.586)"/><path d="M859.029,714.575s1.367-1.367-.547-1.367a8.9,8.9,0,0,0-3.555.82l-1.367,4.922s-5.606,4.512.684,3.965,5.333-.137,5.333-.137,1.914-.547,2.188-1.094-.547-8.478-.547-8.478S860.4,715.4,859.029,714.575Z" transform="translate(-709.805 -586.454)"/><path d="M930.616,714.575s-1.367-1.367.547-1.367a8.9,8.9,0,0,1,3.555.82l1.367,4.922s5.606,4.512-.684,3.965-6.153-.137-6.153-.137-1.914-.547-2.188-1.094,1.367-8.478,1.367-8.478S929.249,715.4,930.616,714.575Z" transform="translate(-769.633 -586.454)"/><circle class="b" cx="7.11" cy="7.11" r="7.11" transform="translate(136.098 4.786)"/><path class="b" d="M847.9,181.779s1.094,5.469,1.094,6.29,4.649,3.282,4.649,3.282l5.2-6.563s-3.282-4.649-3.282-5.743Z" transform="translate(-707.15 -164.687)"/><path class="c" d="M827.37,204.348s-2.384-.634-3.106-1.685c0,0-7.559,7.427-7.559,8.795l6.016,10.665s0,3.829.547,4.1,0,0,0,1.094-1.641,8.2-1.094,9.3,1.094.273.547,1.914-1.914,10.392-1.914,10.392,4.922-1.641,12.033,1.094,15.588-1.094,15.588-1.094-2.188-4.922-1.641-6.563-1.367-4.649-1.367-4.649l-1.367-25.159s1.914-11.212.547-11.759l-2.735-1.094-8.758-1.076S830.926,204.075,827.37,204.348Z" transform="translate(-682.522 -180.146)"/><path class="c" d="M817.16,250.526l-2.735,1.914s-1.367,4.1,0,6.016a14.025,14.025,0,0,1,1.914,4.649l5.469-.547Z" transform="translate(-680.242 -221.128)"/><path d="M824.824,115.194l-1.233-.494a8.414,8.414,0,0,1,6.167-2.592L828.748,111a4.29,4.29,0,0,1,4.709,1.6,21.89,21.89,0,0,1,3.393,4.769h1.321l-.551,1.214,1.93,1.214-1.98-.218a6.715,6.715,0,0,1-.187,3.144l.053.959a29.5,29.5,0,0,1-2.3-4.045v1.234s-1.233-1.111-1.233-1.852l-.673.864-.336-1.358-4.148,1.358.673-1.111-2.579.37,1.009-1.358s-2.915,1.6-3.027,2.963a7.282,7.282,0,0,1-1.57,3.086l-.673-1.234S821.572,117.045,824.824,115.194Z" transform="translate(-687.045 -110.812)"/><rect class="d" width="108.672" height="76.338" transform="translate(30.756 59.513)"/><rect class="a" width="27.286" height="47.633" transform="translate(39.904 88.639)"/><rect class="d" width="7.35" height="6.852" transform="translate(44.952 91.497)"/><rect class="d" width="7.35" height="6.852" transform="translate(54.793 91.497)"/><rect class="d" width="7.35" height="7.101" transform="translate(44.952 100.84)"/><rect class="d" width="7.35" height="7.101" transform="translate(54.793 100.84)"/><circle class="e" cx="1.735" cy="1.735" r="1.735" transform="translate(61.986 113.927)"/><rect class="a" width="53.942" height="45.267" transform="translate(76.339 84.118)"/><path class="a" d="M223.583,213.681H92.2l8.76-18.315,1.96-4.1,2.565-5.363,1.96-4.1,2.273-4.751H213.232l1.342,4.751,1.159,4.1,1.516,5.363,1.159,4.1Z" transform="translate(-72.799 -139.796)"/><rect class="e" width="1.893" height="11.672" transform="translate(78.231 102.887)"/><rect class="d" width="1.893" height="1.42" transform="translate(78.231 104.622)"/><rect class="d" width="1.893" height="1.42" transform="translate(78.231 111.404)"/><rect class="e" width="4.574" height="11.672" transform="translate(81.07 102.887)"/><rect class="d" width="4.574" height="1.42" transform="translate(81.07 104.622)"/><rect class="d" width="4.574" height="1.42" transform="translate(81.07 111.404)"/><rect class="e" width="1.893" height="11.672" transform="translate(86.748 102.887)"/><rect class="d" width="1.893" height="1.42" transform="translate(86.748 104.622)"/><rect class="d" width="1.893" height="1.42" transform="translate(86.748 111.404)"/><rect class="e" width="1.893" height="11.672" transform="translate(89.588 102.887)"/><rect class="d" width="1.893" height="1.42" transform="translate(89.588 104.622)"/><rect class="d" width="1.893" height="1.42" transform="translate(89.588 111.404)"/><path class="e" d="M0,0H1.893V11.672H0Z" transform="translate(91.534 103.595) rotate(-20.654)"/><rect class="d" width="1.893" height="1.42" transform="translate(92.146 105.219) rotate(-20.654)"/><rect class="d" width="1.893" height="1.42" transform="translate(94.538 111.565) rotate(-20.654)"/><rect class="e" width="4.574" height="11.672" transform="translate(123.971 102.887)"/><rect class="d" width="4.574" height="1.42" transform="translate(123.971 104.622)"/><rect class="d" width="4.574" height="1.42" transform="translate(123.971 111.404)"/><rect class="e" width="1.893" height="11.672" transform="translate(120.975 102.887)"/><rect class="d" width="1.893" height="1.42" transform="translate(120.975 104.622)"/><rect class="d" width="1.893" height="1.42" transform="translate(120.975 111.404)"/><rect class="e" width="1.893" height="11.672" transform="translate(118.135 102.887)"/><rect class="d" width="1.893" height="1.42" transform="translate(118.135 104.622)"/><rect class="d" width="1.893" height="1.42" transform="translate(118.135 111.404)"/><rect class="e" width="11.672" height="1.893" transform="translate(112.196 113.849) rotate(-69.346)"/><rect class="d" width="1.42" height="1.893" transform="translate(115.2 105.88) rotate(-69.346)"/><rect class="d" width="1.42" height="1.893" transform="translate(112.808 112.226) rotate(-69.346)"/><rect class="d" width="53.942" height="1.104" transform="translate(76.339 114.558)"/><path class="e" d="M0,0H9.937V11.672H0Z" transform="translate(99.84 102.887)"/><rect class="d" width="5.047" height="2.208" transform="translate(102.284 105.41)"/><rect class="d" width="0.946" height="10.094" transform="translate(102.836 84.118)"/><circle class="d" cx="1.577" cy="1.577" r="1.577" transform="translate(101.732 92.635)"/><path class="e" d="M265.586,203.729H155.337l1.96-4.1H264.427Z" transform="translate(-122.652 -157.623)"/><path class="e" d="M251.28,248.7H133.831l1.96-4.1h114.33Z" transform="translate(-105.671 -193.134)"/><path class="b" d="M825.02,262.223a20.917,20.917,0,0,0-1.253,8.1,4.271,4.271,0,0,0,.706,2.017h0l-19.4,9.211s-8.766.908-6.578,4.736,10.118-1.914,10.118-1.914,20.784-3.008,22.425-6.016,2.735-15.588,2.735-15.588Z" transform="translate(-667.865 -230.363)"/><path class="c" d="M922.593,208.937h4.1s3.008.547,3.829,6.016,1.641,6.837.82,6.837-10.665-.273-10.665-.547S922.593,208.937,922.593,208.937Z" transform="translate(-764.617 -188.29)"/><circle class="e" cx="21.042" cy="21.042" r="21.042" transform="translate(0 60.258)"/><circle class="f" cx="18.096" cy="18.096" r="18.096" transform="translate(2.946 63.204)"/></g></svg>