<svg xmlns="http://www.w3.org/2000/svg" width="214.733" height="143.241" viewBox="0 0 214.733 143.241"><defs><style>.a{fill:#e6e6e6;}.b{fill:#9f616a;}.c{fill:#3f3d56;}.d{fill:red;}.e{fill:#fff;}</style></defs><path class="a" d="M140.606,455.165l-38.288-13.637v-.193H38.494L0,455.165H.111v3.688H140.716v-3.688Z" transform="translate(0 -334.613)"/><ellipse class="a" cx="47.321" cy="3.858" rx="47.321" ry="3.858" transform="translate(120.091 135.525)"/><path class="b" d="M727.334,442.773,724.963,445s-6.426,5.24-3.443,7.162,6.308-5.785,6.308-5.785l1.281-1.988Z" transform="translate(-584.169 -372.9)"/><path class="a" d="M753.142,284.667l-3.351.789a25.836,25.836,0,0,0-.591,6.505,54.688,54.688,0,0,1-.772,9.008l-2.273,5.286-9.516,18,5.915,2.572,10.587-20.674.986-13.208Z" transform="translate(-596.232 -253.027)"/><ellipse cx="10.492" cy="11.138" rx="10.492" ry="11.138" transform="translate(151.401 0)"/><circle cx="5.52" cy="5.52" r="5.52" transform="translate(165.683 16.954)"/><path class="b" d="M668.6,62.365l2.957,7.688-7.491,3.154-.658-1.491-2.3-5.212Z" transform="translate(-501.244 -47.284)"/><path d="M809.438,381.376l2.76,13.011,3.746,29.176-2.76,26.613s-8.28,2.76-11.434-2.366l3.746-21.882L798,400.1l-1.183,25.431,1.971,22.079s-6.111,3.548-11.04,0L784.4,403.849s-2.563-19.122,3.351-25.431Z" transform="translate(-632.025 -324.108)"/><circle class="b" cx="6.604" cy="6.604" r="6.604" transform="translate(154.841 6.9)"/><path class="a" d="M798.729,247.076l.646-2.058s5.95-.98,7.679-2.911l3.109,3.195s8.477,2.76,9.66,3.943-4.731,19.516-4.731,19.516,1.38,3.154-.986,4.534c0,0,3.548,5.323.789,5.914s-22.671-3.548-22.671-3.548-1.38-2.366,1.774-3.351c0,0-1.183-2.76.2-3.746s.2-6.505.2-6.505-4.14-8.28-3.548-8.871S798.729,247.076,798.729,247.076Z" transform="translate(-637.284 -220.758)"/><path class="b" d="M886.018,458.678l-.2,1.577s.2,9.463-3.351,9.068-1.38-9.66-1.38-9.66l.591-2.168Z" transform="translate(-705.254 -384.063)"/><path d="M857.63,665.352s-.789,7.885.591,8.477,10.645,5.52,7.885,7.688-12.025-3.548-13.011-2.563-4.14.2-4.337-1.577a10.407,10.407,0,0,1,1.774-6.9c1.577-1.971,1.577-5.914,1.577-5.914Z" transform="translate(-681.203 -541.058)"/><path d="M811.682,655.6l1.38,6.505s2.957,6.505.394,7.885-2.957,1.577-3.154,2.366-5.52,4.928-7.1,1.774,4.14-7.688,4.14-7.688l.986-2.168-.986-7.688Z" transform="translate(-646.492 -534.26)"/><path d="M795.48,177.5c4.151-2.77,5.392-3.432,10.15-2.362l.285-6.941-12.295,2.579Z" transform="translate(-639.433 -164.723)"/><path class="a" d="M886.838,271.821l1.971-.2s1.971,5.126,1.971,7.688v16.954l-3.154,22.276-6.111-.986,3.351-19.911-.986-12.025Z" transform="translate(-706.074 -243.138)"/><path class="c" d="M701.121,430.377l.75,1.458a.057.057,0,0,1-.025.077l-.036.019,3.909,7.6a.891.891,0,0,1-.385,1.2l-4.746,2.443a.891.891,0,0,1-1.2-.385l-3.772-7.33-.026.013a.04.04,0,0,1-.054-.017l-.427-.83a.04.04,0,0,1,.017-.054l.026-.013-.161-.313-.026.014a.042.042,0,0,1-.057-.018l-.421-.819a.042.042,0,0,1,.018-.057l.026-.014-.22-.427-.027.014a.037.037,0,0,1-.05-.016l-.23-.447a.038.038,0,0,1,.016-.051l.027-.014-.465-.9a.891.891,0,0,1,.385-1.2l4.746-2.443a.891.891,0,0,1,1.2.384l1.094,2.126.036-.019A.057.057,0,0,1,701.121,430.377Z" transform="translate(-563.511 -361.518)"/><path class="d" d="M701.243,430.254,707,441.445a.566.566,0,0,1-.244.761l-4.543,2.338a.565.565,0,0,1-.761-.244l-5.76-11.191a.566.566,0,0,1,.244-.762l.68-.35.045.087a.466.466,0,0,0,.627.2L699.6,431.1a.466.466,0,0,0,.2-.627l-.045-.087.725-.373A.565.565,0,0,1,701.243,430.254Z" transform="translate(-565.139 -363.175)"/><path class="c" d="M382.986,430.3a2.222,2.222,0,0,0-1.26.424l-3.99-32.586a5.514,5.514,0,0,0-5.473-4.844H345.017a5.514,5.514,0,0,0-5.473,4.844l-3.99,32.586a2.223,2.223,0,0,0-1.26-.424c-2.151,0-3.9,3.488-3.9,7.791s1.744,7.791,3.9,7.791c1.634,0,3.031-2.015,3.61-4.869h41.472c.578,2.854,1.975,4.869,3.61,4.869,2.151,0,3.9-3.488,3.9-7.791S385.137,430.3,382.986,430.3ZM345.98,432.25a4.869,4.869,0,1,1,4.869-4.869,4.869,4.869,0,0,1-4.869,4.869Zm24.346,0a4.869,4.869,0,1,1,4.869-4.869,4.869,4.869,0,0,1-4.869,4.869Zm5.843-18.6a3.021,3.021,0,0,1-3.021,3.021H344.132a3.021,3.021,0,0,1-3.021-3.021v-9.539a3.021,3.021,0,0,1,3.021-3.021h29.015a3.021,3.021,0,0,1,3.021,3.021Z" transform="translate(-288.227 -335.389)"/><path class="d" d="M280.295,235.569h-10.2l2.186-3.279h5.829Z" transform="translate(-204.781 -176.118)"/><path class="d" d="M11.435,0A11.435,11.435,0,1,1,0,11.435,11.435,11.435,0,0,1,11.435,0Z" transform="translate(57.741 28.582)"/><path class="e" d="M270.834,155.211l-3.423-4.4,1.99-1.548,1.621,2.084,5.475-5.779,1.831,1.735Z" transform="translate(-202.747 -110.366)"/><rect class="e" width="2.305" height="1.383" transform="translate(69.15 107.049)"/><path class="e" d="M444.267,623.472h-2.305v-2.977h2.305Zm0-5.955h-2.305V614.54h2.305Z" transform="translate(-372.812 -503.131)"/><rect class="e" width="2.305" height="1.383" transform="translate(69.15 123.318)"/></svg>